<svg xmlns="http://www.w3.org/2000/svg" width="256" height="256"><path fill="#1976D2" fill-opacity=".016" fill-rule="evenodd" d="M0 128.004v128.004l128.25-.254 128.25-.254.254-127.75L257.008 0H0zm.485.496c0 70.4.119 99.053.265 63.672s.146-92.98 0-128S.485 58.1.485 128.5"/><path fill="#1976D2" fill-opacity=".123" fill-rule="evenodd" d="M114.768.725c1.797.222 4.497.218 6-.01 1.503-.229.032-.411-3.268-.405s-4.529.192-2.732.415M102.75 2.816c-1.903.219-2.75.891-2.75 2.181 0 1.138-.876 2.033-2.25 2.297-1.527.294-1.126.485 1.25.594 5.588.257 11.847 1.976 17.79 4.885 6.297 3.084 15.916 12.072 18.394 17.187 1.67 3.448 1.666 3.463-1.505 7.038-2.867 3.231-3.537 3.52-6.827 2.945-3.69-.644-5.908.1-9.065 3.041-1.435 1.337-1.564 2.239-.746 5.203.545 1.973 1.321 6.896 1.725 10.941.713 7.143.82 7.373 3.734 7.995l3 .64-3.25.119c-3.158.115-3.25.243-3.25 4.53 0 7.648-2.86 19.762-6.452 27.325-8.006 16.859-22.526 25.789-37.869 23.292-6.783-1.104-14.743-5.046-17.648-8.739-1.614-2.052-2.027-2.261-1.561-.79 1.095 3.461-5.222-4.578-8.094-10.301l-2.66-5.301-2.608 2.353c-1.434 1.294-5.226 4.042-8.426 6.106-5.309 3.425-6.105 3.659-9.106 2.668C18.353 106.971 14 110.403 14 117.362c0 2.509.685 4.032 2.432 5.406 1.904 1.497 2.582 3.23 3.118 7.968.637 5.636.534 6.102-1.49 6.745-2.854.906-5.522 6.543-4.681 9.893.875 3.488 6.584 9.184 8.824 8.805 1.618-.274 1.797.585 1.797 8.651 0 11.707.819 12.053 10.67 4.507 8.113-6.214 8.598-6.749 8.93-9.863.17-1.596-.907-2.705-4.414-4.543-6.432-3.371-11.057-6.267-8.825-5.526 1.381.458 1.712.228 1.283-.89-.389-1.013 1.712-.354 6.416 2.015 6.846 3.448 7.046 3.485 9.436 1.746 2.159-1.571 2.445-2.545 2.473-8.438.027-5.764.267-6.627 1.781-6.408 1.423.207 1.804 1.457 2.041 6.697.232 5.145.69 6.692 2.272 7.68 1.719 1.074 2.766.705 7.901-2.783 3.471-2.357 6.18-3.6 6.547-3.006.345.558 1.046.756 1.558.439.512-.316.931-.363.931-.104s-2.95 2.577-6.557 5.15c-5.881 4.197-6.525 4.991-6.25 7.715.266 2.632 1.329 3.615 8.002 7.399l7.696 4.363 3.477-2.24c2.834-1.825 3.552-2.981 3.88-6.24l.403-4 .174 4.642c.153 4.068.488 4.72 2.71 5.278 2.817.707 4.728 4.512 4.262 8.484-.265 2.258.816 3.158 10.102 8.412l10.399 5.885 3.737-2.101c4.463-2.508 7.716-2.663 10.784-.514 2.159 1.512 2.483 1.406 6.898-2.25 2.549-2.11 6.271-4.961 8.273-6.336 10.301-7.077 15.01-11.496 15.01-14.088 0-1.437.494-4.031 1.098-5.763 1.142-3.278 2.529-3.762 9.476-3.307 2.443.159 5.318-1.463 14-7.901l10.926-8.102-.321-4.194c-.238-3.112.231-4.896 1.817-6.913 1.949-2.477 2.022-3.041.826-6.348-.722-1.997-2.111-3.925-3.087-4.286-1.623-.601-1.556-.951.793-4.127 1.442-1.951 2.357-4.28 2.088-5.317-.765-2.949.346-4.931 1.995-3.561.758.628 2.281.907 3.385.618 1.104-.288 1.755-.116 1.446.382-.825 1.336.252 1.139 8.955-1.64 4.343-1.387 8.268-2.394 8.723-2.237.455.156-4.058 1.85-10.029 3.764-10.041 3.218-10.941 3.717-12.003 6.653-.944 2.61-.843 3.813.567 6.771 1.555 3.26 2.097 3.596 5.792 3.596 3.995 0 4.235-.207 11.875-10.216 4.918-6.443 7.629-10.863 7.341-11.966-.252-.962-.167-1.653.19-1.534.874.292 1.147-.725 1.147-4.271 0-2.689-.682-3.331-6.819-6.422-4.674-2.354-7.268-3.149-8.25-2.527-3.194 2.021-3.615-.546-.629-3.845 2.099-2.32 2.189-5.567.198-7.219-2.159-1.792-1.847-3 .775-3C210.765 73 225 59.478 225 57.113c0-1.667-6.914-.807-14.831 1.845-4.407 1.477-5.421 1.548-5.857.414-.807-2.103.532-4.646 2.125-4.034 1.747.67 16.341-2.716 17.741-4.116.684-.684-1.744-2.516-7.484-5.645-7.388-4.027-9.013-4.55-12.442-4.001-3.485.557-4.196.311-6.098-2.108-1.185-1.506-2.154-3.527-2.154-4.491 0-1.188-2.664-3.122-8.25-5.991-8.231-4.228-16.13-10.562-15.15-12.149 1.194-1.93-.969-.638-2.777 1.66-1.532 1.948-2.36 2.286-3.762 1.536-.989-.53-2.082-.753-2.43-.498-.347.256-.41.169-.14-.193.788-1.055-1.614-3.384-2.759-2.676-.572.353-.751.174-.398-.398.723-1.169-2.042-3.893-2.99-2.946-.334.334-1.36.205-2.279-.287-2.391-1.28-3.703-.114-5.394 4.793-1.431 4.154-1.407 4.337.673 5.176 1.186.478 1.55.898.81.933-.74.034-2.678 1.012-4.307 2.172s-3.083 1.948-3.231 1.75-1.277-2.036-2.51-4.086c-3.202-5.325-13.108-13.96-19.743-17.209-5.678-2.78-13.44-4.343-18.613-3.748M148 7.393c0 .216.698.661 1.552.989.89.341 1.291.173.941-.393-.587-.951-2.493-1.406-2.493-.596m4.435 2.502c.372.602 1.606 1.592 2.741 2.199 1.48.792 1.874.795 1.389.011-.372-.602-1.606-1.592-2.741-2.199-1.48-.792-1.874-.795-1.389-.011M73.329 22.873c-11.23 4.175-17.658 10.522-23.93 23.627-13.092 27.357-5.06 60.665 17.282 71.664 5.529 2.722 7.69 3.24 13.297 3.189 16.979-.156 31.696-15.649 35.675-37.558 1.704-9.382 1.234-25.019-1.002-33.295-5.847-21.651-24.269-33.968-41.322-27.627M184 22.449c0 .275 1.35 1.198 3 2.051s3 1.326 3 1.051-1.35-1.198-3-2.051-3-1.326-3-1.051M70 30.583c-5.063 2.879-9.651 6.931-11.229 9.917-.582 1.1.694.086 2.836-2.254s6.368-5.594 9.393-7.232 5.05-2.981 4.5-2.984-3.025 1.146-5.5 2.553m125.733-1.459c.679.684 1.486.991 1.793.683.308-.308-.247-.867-1.233-1.243-1.425-.542-1.54-.428-.56.56M207 28.378c0 .207.787.995 1.75 1.75 1.586 1.243 1.621 1.208.378-.378-1.307-1.666-2.128-2.195-2.128-1.372m-6.201 3.609c-1.833 1.505-2.082 2.243-1.228 3.641 1.542 2.523 2.829 2.678 5.339.646 1.412-1.144 1.982-2.393 1.574-3.455-.991-2.582-3.165-2.9-5.685-.832m-44.996.353c-12.62 3.557-20.655 14.045-22.448 29.3-.662 5.63-.648 5.67 1.739 5.031 1.323-.354 3.595-.65 5.049-.657 2.449-.013 2.722-.462 3.72-6.124 1.433-8.137 5.218-14.351 10.959-17.992 7.597-4.818 14.581-5.854 21.841-3.241 1.01.364 1.503.294 1.096-.156-.408-.449-.24-1.421.372-2.159 2.85-3.434-13.771-6.414-22.328-4.002M49 39c-.589 1.1-.845 2-.57 2s.981-.9 1.57-2 .845-2 .57-2-.981.9-1.57 2m170 3.43c0 .275.9.981 2 1.57s2 .845 2 .57-.9-.981-2-1.57-2-.845-2-.57m19 1.948c0 .207.787.995 1.75 1.75 1.586 1.243 1.621 1.208.378-.378-1.307-1.666-2.128-2.195-2.128-1.372m-13.267 1.746c.679.684 1.486.991 1.793.683.308-.308-.247-.867-1.233-1.243-1.425-.542-1.54-.428-.56.56m4.922 2.705c-3.083 3.407-1.309 9.171 2.823 9.171 2.565 0 5.522-3.294 5.522-6.151 0-2.222-2.664-4.849-4.916-4.849-.976 0-2.519.823-3.429 1.829m9.217 9.921c-1.243 1.586-1.208 1.621.378.378 1.666-1.307 2.195-2.128 1.372-2.128-.207 0-.995.788-1.75 1.75m-3.45 2.594c-.284.739-.377 4.676-.208 8.75l.308 7.406.489-8.752c.487-8.722.389-9.954-.589-7.404M191.286 65.5c.008 2.75.202 3.756.432 2.236s.223-3.77-.014-5-.425.014-.418 2.764m27.939 2.774C212.668 74.875 212 75.918 212 79.559c0 3.944.11 4.066 6.532 7.233l6.532 3.221 2.968-2.195L231 85.624V73.312C231 61.171 230.968 61 228.725 61c-1.496 0-4.749 2.491-9.5 7.274M145.158 68c0 1.375.227 1.938.504 1.25.278-.687.278-1.812 0-2.5-.277-.687-.504-.125-.504 1.25m.52 5.124c-.731 2.796 1.336 6.756 6.195 11.863 2.813 2.957 4.343 3.867 5.656 3.364 1.229-.472 1.572-.324 1.083.468q-.717 1.159.946.521c1.5-.576 1.481-.733-.199-1.621-3.837-2.028-8.679-7.378-10.857-11.998-1.939-4.112-2.333-4.474-2.824-2.597m43.442 1.42c-1.717 4.749-7.45 11.073-12.262 13.528-2.078 1.061-5.934 2.004-8.568 2.096-4.659.164-4.682.179-.835.573 9.213.942 19.703-5.63 22.497-14.095 1.616-4.896.865-6.794-.832-2.102M146 74.383c0 1.073 2.975 6.617 3.551 6.617.275 0-.243-1.463-1.152-3.25-1.857-3.65-2.399-4.411-2.399-3.367m6.433 10.508c.713 1.154 4.567 3.483 4.567 2.759 0-.231-1.18-1.193-2.623-2.139s-2.318-1.224-1.944-.62m87.173 3.261c1.042 1.459 2.094 2.459 2.338 2.222.245-.236-.607-1.43-1.894-2.652l-2.338-2.222zm-10.432 3.162c-1.196 1.273-2.174 3.229-2.174 4.345 0 2.291 2.916 5.341 5.106 5.341 5.66 0 8.406-9.094 3.329-11.025-3.53-1.342-3.795-1.285-6.261 1.339m-62.424 1.348c.688.278 1.813.278 2.5 0 .688-.277.125-.504-1.25-.504s-1.937.227-1.25.504M242.158 94c0 1.375.227 1.938.504 1.25.278-.687.278-1.812 0-2.5-.277-.687-.504-.125-.504 1.25M137.5 97c.995 1.1 2.035 2 2.31 2s-.315-.9-1.31-2-2.035-2-2.31-2 .315.9 1.31 2m80.313 3.683c.721.289 1.584.253 1.916-.079s-.258-.568-1.312-.525c-1.165.048-1.402.285-.604.604m21.059 1.067c-1.243 1.586-1.208 1.621.378.378.963-.755 1.75-1.543 1.75-1.75 0-.823-.821-.294-2.128 1.372m-28.684.933c-2.372.839-4.136 1.702-3.92 1.918.456.457 9.732-2.589 9.732-3.195 0-.626-1.138-.376-5.812 1.277m7.643 11.578-8.561 11.324 1.072 4.621c.891 3.837 1.674 4.914 4.615 6.344 2.141 1.041 3.01 1.913 2.195 2.202-.907.323-.417 1.093 1.5 2.357 4.224 2.785 1.497 2.281-3.152-.583-5.082-3.13-5.821-3.114-9.134.199l-2.724 2.724 1.701 8.263c2.553 12.404 3.854 15.765 6.166 15.932 1.095.079 2.805.191 3.8.25s1.55.525 1.234 1.037-.118 1.213.441 1.559 1.016.086 1.016-.576 1.878-4.248 4.174-7.968c3.971-6.436 4.329-6.739 7.368-6.245 9.719 1.577 17.678-11.325 10.982-17.805-4.708-4.557-6.53-5.896-8.024-5.896-1.262 0-1.5-2.222-1.5-14 0-7.835-.404-14-.918-14-.505 0-1.542-.239-2.305-.532-.901-.346-4.377 3.425-9.946 10.793m17.004-1.663c-.184 3.629.003 6.806.415 7.059s.75-2.716.75-6.598-.187-7.059-.415-7.059-.565 2.969-.75 6.598M52 109.378c0 .207.788.995 1.75 1.75 1.586 1.243 1.621 1.208.378-.378-1.307-1.666-2.128-2.195-2.128-1.372m54 13.711c-2.154 1.762-2.196 1.897-.306.973 1.207-.59 2.471-1.52 2.809-2.067.903-1.461.297-1.196-2.503 1.094m24.441 1.466c-1.864 1.494-1.852 1.512.309.465 1.238-.6 2.25-1.3 2.25-1.555 0-.765-.519-.544-2.559 1.09M199 128.294c-5.096 2.578-6.173 9.473-1.842 11.791 4.733 2.532 12.116-4.789 9.619-9.538-1.967-3.74-3.791-4.269-7.777-2.253m-114.75 2.395c.963.252 2.537.252 3.5 0 .963-.251.175-.457-1.75-.457s-2.713.206-1.75.457m18.95 9.511c-1.383 1.383-1.608 5.43-.344 6.211.47.291.642-.585.382-1.947s.085-3.148.767-3.97c1.481-1.784.898-1.997-.805-.294m16.05-.457c4.263.188 11.238.188 15.5 0 4.262-.187.775-.341-7.75-.341s-12.013.154-7.75.341m62.898 11.865c-9.052 6.901-11.148 8.977-11.148 11.044 0 1.539-1.186 3.654-3 5.348-2.736 2.556-3 3.372-3 9.279 0 4.537.449 6.849 1.5 7.721 2.095 1.739 1.869 4.631-.553 7.053-3.139 3.139-2.415 10.841 1.21 12.868 3.202 1.79 4.094 1.407 14.843-6.37 4.125-2.984 9.844-7.094 12.708-9.133 4.315-3.071 5.044-4.014 4.25-5.497-.527-.984-.958-2.935-.958-4.335 0-3.736-7.172-7.337-11.42-5.734-6.066 2.29-10.186-4.246-5.58-8.852 3.393-3.393 9-1.845 9 2.485 0 1.329.787 2.874 1.75 3.435 1.38.804 1.433 1.029.25 1.065-1.333.041-1.333.153 0 1.015 1.963 1.269 3.282 1.265 2.495-.008-.388-.629.271-.6 1.755.076 2.056.937 2.829.661 5.723-2.043l3.346-3.126-2.388-11.011c-1.314-6.056-2.624-11.363-2.91-11.792s-1.917-1.053-3.623-1.384c-2.752-.535-4.361.357-14.25 7.896m-59.398-5.902c1.237.238 3.263.238 4.5 0 1.238-.239.225-.434-2.25-.434s-3.487.195-2.25.434m-74.179 9.865c-2.515 2.516-2.018 7.268.899 8.597 2.886 1.315 5.156-.053 6.663-4.017 1.749-4.602-4.035-8.106-7.562-4.58M103.2 157.2c-2.366 2.366-.787 7.829 2.25 7.785.578-.009.375-.452-.45-.985-1.017-.658 2.138-.974 9.809-.985 6.937-.009 11.081-.385 10.718-.971-.325-.526-1.252-.703-2.059-.393-1.795.688-1.924-.794-.218-2.504 1.001-1.004-.705-1.217-8.58-1.071-8.974.166-9.909.366-10.74 2.303-.853 1.988-.895 1.965-.67-.379l.24-2.5 17-.537 17-.537-16.55-.213c-11.79-.152-16.895.132-17.75.987m-83.001 8.179c-.183 6.328-.479 7.189-3.699 10.753-2.228 2.466-3.5 4.882-3.5 6.648 0 3.188 2.674 7.54 4.093 6.662.526-.325.833.005.682.734-.199.957 1.111 1.329 4.725 1.343 2.85.011 6.41.781 8.279 1.791 1.804.974 3.786 1.459 4.405 1.076.649-.401.849-.248.472.362-.359.581.947 2 2.903 3.154 4.105 2.422 4.839 2.584 3.84.848-.396-.687-.37-.935.056-.551.427.384.921 2.633 1.097 4.997.552 7.403 7.496 11.359 11.504 6.554 1.033-1.238 1.892-1.687 1.911-1 .018.688-.492 1.25-1.134 1.25s-.929.238-.638.528c.29.29 1.741.067 3.223-.497 1.551-.589 2.45-.626 2.116-.086-.319.516 2.589 2.821 6.461 5.121s7.289 4.585 7.592 5.075 1.003.612 1.556.271c.553-.342.434.292-.263 1.409-1.615 2.586-.068 6.354 3.594 8.754 2.311 1.514 2.936 1.536 6.296.214 2.182-.858 3.62-2.052 3.466-2.878-.154-.818.386-.57 1.283.589.852 1.1 5.246 4.271 9.765 7.046 7.619 4.679 8.226 5.297 8.356 8.5.231 5.706 2.035 8.92 5.919 10.543 2.936 1.227 4.175 1.275 6.954.27 1.859-.672 3.184-1.54 2.945-1.927-.627-1.015 2.088-3.052 2.937-2.204.391.391.385-.137-.012-1.173-.474-1.235-.352-1.654.354-1.218.672.416.894-.031.592-1.187-.266-1.018.226-2.562 1.093-3.429.868-.868 1.578-2.156 1.578-2.862s1.238-2.346 2.75-3.644 2.075-2.016 1.25-1.595c-1.291.658-1.309.529-.128-.928 1.486-1.832 2.634-2.32 1.628-.692-1.044 1.689 1.169 1.106 2.628-.692 1.183-1.459 1.165-1.574-.128-.84-.88.5-1.161.482-.679-.045.451-.494 1.576-.903 2.5-.91s1.555-.609 1.404-1.337c-.151-.729.177-1.046.729-.705 1.201.743 7.174-3.454 6.49-4.561-.262-.424.05-1.097.694-1.495.731-.452.903-.291.457.43-.392.635-.263 1.155.287 1.155s1.258-.417 1.572-.926 2.929-.708 5.81-.44c7.731.718 10.829-1.516 11.234-8.103.296-4.804.264-4.871-.959-2-.696 1.633-2.324 3.869-3.617 4.969-2.028 1.725-1.978 1.543.363-1.327 3.116-3.817 3.352-5.393 1.144-7.602-2.378-2.377-6.013-1.915-8.356 1.064-2.74 3.483-2.617 4.948.677 8.052 2.284 2.152 2.372 2.394.519 1.427-1.227-.64-2.897-2.39-3.71-3.889s-1.497-2.37-1.519-1.936-.659.212-1.415-.494c-.756-.707-1.221-1.737-1.033-2.29.369-1.087-10.044-7.505-12.177-7.505-.713 0-1.549-.408-1.857-.907-.839-1.356 3.582-.036 6.442 1.925 1.375.942 3.983 2.471 5.797 3.397 3.215 1.643 3.368 1.624 6.213-.77 1.604-1.349 3.474-2.64 4.157-2.867 1.752-.584 1.833-14.378.083-14.028-1.766.353-1.556-3.302.296-5.153 2.182-2.183 1.676-14.939-.61-15.374-.861-.164-4.461 2.31-8 5.497-3.54 3.188-9.924 8.427-14.186 11.644-6.534 4.93-7.75 6.302-7.75 8.742 0 1.64.541 2.901 1.25 2.909q1.254.015-.25 1c-1.333.876-1.333 1.103 0 2.051 1.203.854 1.08.948-.618.474-1.54-.43-2.557.078-3.724 1.859-.882 1.347-2.517 2.739-3.631 3.093-1.691.536-2.058 1.586-2.212 6.325l-.185 5.683-.37-5.331c-.219-3.16.109-5.909.807-6.75.971-1.17.665-1.419-1.745-1.419-1.607 0-3.462-.54-4.122-1.2-.667-.667-1.2-.756-1.2-.2 0 .55.54 1.54 1.2 2.2 1.802 1.802-.272 1.445-2.308-.398-1.095-.99-2.265-1.278-3.079-.757-.722.463-2.351.866-3.62.896l-2.307.054 2.307-1.776c1.269-.976 2.645-1.785 3.057-1.797s.75-1.975.75-4.362v-4.341l-10.574-5.789c-8.913-4.88-10.915-5.623-12.75-4.733-3.567 1.732-5.061 1.958-7.346 1.114-1.76-.649-3.813.438-10.841 5.738l-8.669 6.54.34 4.836c.306 4.356.183 4.694-1.241 3.403-.87-.788-1.823-1.191-2.118-.896s-.316-.619-.046-2.032c.293-1.531-.136-3.264-1.06-4.285-.854-.943-1.472-2.165-1.374-2.715.32-1.791-4.434-1.707-6.446.114-1.668 1.509-1.868 1.532-1.341.157.341-.889 1.261-1.862 2.043-2.162 1.124-.432 1.421-3.125 1.415-12.828-.008-12.269-.01-12.282-2.627-13.497-2.426-1.126-3.197-.794-10.466 4.5-7.066 5.148-7.793 5.984-7.306 8.407.61 3.037-1.174 7.186-2.687 6.251-.546-.338-1.761-.021-2.7.705-1.535 1.186-1.531 1.112.044-.743 3.329-3.922 1.188-9.275-3.246-8.115-1.104.288-1.755.116-1.446-.382.308-.499 1.658-.907 3.001-.907s2.441-.257 2.441-.571c0-1.04-2.833-3.426-3.17-2.67-.181.408-1.905 1.781-3.83 3.051l-3.5 2.31 3.297-2.922c3.247-2.878 3.291-3.033 2.948-10.31l-.348-7.388zm141.402-4.49c-2.597 2.869-1.715 5.611 1.804 5.611 3.554 0 5.595-2.69 3.983-5.25-1.573-2.497-3.732-2.632-5.787-.361M81.195 163.5c.02 1.65.244 2.204.498 1.231s.237-2.323-.037-3-.481.119-.461 1.769m-25.54 3.329C54.31 168.315 54 170.89 54 180.588c0 10.876.178 12.042 2.014 13.189 1.802 1.125 2.88.552 10.25-5.459 4.53-3.694 8.335-6.763 8.455-6.82.121-.056-.05-1.761-.379-3.787-.543-3.35-1.307-4.094-8.422-8.198-4.304-2.482-8.001-4.513-8.216-4.513-.216 0-1.137.823-2.047 1.829m24 6c-2.101 2.322-2.132 6.531-.06 8.25 1.329 1.103 2.022 1.082 4.146-.127 3.734-2.126 4.686-5.525 2.235-7.976-2.459-2.459-4.192-2.5-6.321-.147m124.734.513c-3.545 3.049-3.741 8.145-.416 10.837 2.772 2.245 5.621 1.656 8.777-1.816 2.785-3.063 2.883-6.73.25-9.363s-5.276-2.527-8.611.342M103.2 174.2c-1.416 1.416-1.525 3.738-.268 5.724.624.986.85.373.734-2l-.166-3.424 14-.543 14-.543-13.55-.207c-9.452-.144-13.913.156-14.75.993m114.424 7.339c-.965 2.514-.681 3.163.498 1.136.584-1.004.851-2.036.593-2.293-.257-.258-.749.263-1.091 1.157M29 187.43c0 .275.9.981 2 1.57s2 .845 2 .57-.9-.981-2-1.57-2-.845-2-.57m182 1.07c-1.72.983-1.992 1.44-.872 1.465.895.019 2.187-.64 2.872-1.465 1.523-1.835 1.209-1.835-2 0m-14.329 3.635c-5 3.547-6.45 4.865-5.352 4.865.176 0 2.711-1.784 5.633-3.964 4.257-3.177 5.684-3.766 7.181-2.965 1.027.55 1.867.774 1.867.499s-.823-.94-1.829-1.479c-1.443-.772-3.027-.129-7.5 3.044m-32.23-1.667c-1.647 1.246-1.693 1.473-.298 1.5.904.018 1.902-.643 2.219-1.468.715-1.863.505-1.867-1.921-.032m-48.327 2.282c-2.687 2.231-3.669 7.17-1.899 9.555 1.93 2.602 8.372 3.897 9.947 2 .672-.81 1.302-2.222 1.401-3.138.098-.917.479-2.373.845-3.235.946-2.226-3.039-6.932-5.87-6.932-1.274 0-3.265.787-4.424 1.75m-73.888 2.829c.95.991 1.942 1.587 2.205 1.324s-.514-1.074-1.726-1.803c-2.107-1.265-2.128-1.243-.479.479m7.215.976c-1.91 1.53-1.909 1.541.059.635 1.1-.506 2.675-1.17 3.5-1.476 1.296-.48 1.288-.567-.059-.635-.857-.043-2.432.621-3.5 1.476m138.431 2.195c-1.243 1.586-1.208 1.621.378.378 1.666-1.307 2.195-2.128 1.372-2.128-.207 0-.995.787-1.75 1.75M58.158 202c0 1.375.227 1.938.504 1.25.278-.687.278-1.812 0-2.5-.277-.687-.504-.125-.504 1.25m125.714-.25c-1.243 1.586-1.208 1.621.378.378 1.666-1.307 2.195-2.128 1.372-2.128-.207 0-.995.787-1.75 1.75m-137.793.833c.048 1.165.285 1.402.604.605.289-.722.253-1.585-.079-1.917s-.568.258-.525 1.312m76.793 1.167c-1.243 1.586-1.208 1.621.378.378.963-.755 1.75-1.543 1.75-1.75 0-.823-.821-.294-2.128 1.372M137 205.495c0 .67 12.122 6.716 12.569 6.269.202-.201-2.544-1.802-6.101-3.556S137 205.233 137 205.495m39.872 1.255c-1.243 1.586-1.208 1.621.378.378 1.666-1.307 2.195-2.128 1.372-2.128-.207 0-.995.787-1.75 1.75M62 207.43c0 .275.9.981 2 1.57s2 .845 2 .57-.9-.981-2-1.57-2-.845-2-.57m39.423.695c-.298.481.005.875.673.875.741 0 .472.851-.691 2.185-1.443 1.655-.996 1.505 1.845-.619 2.063-1.542 3.75-2.919 3.75-3.06 0-.703-5.111-.136-5.577.619m16.563 6.171.486 6.204.321-5.393c.177-2.966-.042-5.758-.486-6.204s-.588 1.981-.321 5.393M172.5 210c-.995 1.1-1.398 2-.896 2 .503 0 1.477-.9 2.164-2s1.09-2 .895-2c-.194 0-1.168.9-2.163 2m-105.5.43c0 .275.9.981 2 1.57s2 .845 2 .57-.9-.981-2-1.57-2-.845-2-.57m26.209 3.276c-2.495 1.982-3.57 2.333-4.45 1.453-2.286-2.286-2.855-1.102-.834 1.736 1.134 1.592 2.528 3.955 3.097 5.25l1.034 2.355-.506-2.5c-.36-1.78.136-3.029 1.722-4.337 1.225-1.01 1.666-1.546.978-1.191-1.945 1.005-1.474-.605.924-3.158 2.821-3.002 2.14-2.866-1.965.392m3.663 1.044c-1.243 1.586-1.208 1.621.378.378 1.666-1.307 2.195-2.128 1.372-2.128-.207 0-.995.787-1.75 1.75m-17.365.239c-.35.566.051.734.941.393 1.732-.665 2.049-1.382.611-1.382-.518 0-1.216.445-1.552.989m91.224.931c-.435 1.663-.305 2.054.437 1.312.582-.582.86-1.647.62-2.369-.25-.749-.703-.295-1.057 1.057m-17.631 1.042c-.055.805-1.134 2.38-2.397 3.5-1.264 1.121-1.771 1.693-1.127 1.271s1.79-.572 2.547-.334c.757.239 2.727.7 4.377 1.026l3 .591-2.494-1.424c-1.372-.783-2.789-2.474-3.15-3.758s-.701-1.676-.756-.872m-65.021 4.621c.048 1.165.285 1.402.604.605.289-.722.253-1.585-.079-1.917s-.568.258-.525 1.312m77.428-.594c-.35.566.051.734.941.393 1.732-.665 2.049-1.382.611-1.382-.518 0-1.216.445-1.552.989M76.086 224c-.031.825.381 2.175.914 3 1.181 1.828 1.181.249 0-2.5-.567-1.319-.878-1.489-.914-.5m69.786 2.75c-1.243 1.586-1.208 1.621.378.378 1.666-1.307 2.195-2.128 1.372-2.128-.207 0-.995.787-1.75 1.75M117 232c-.901.582-1.025.975-.309.985.655.008 1.469-.435 1.809-.985.767-1.242.421-1.242-1.5 0m6.5 1c2.749 1.181 4.328 1.181 2.5 0-.825-.533-2.175-.945-3-.914-.989.036-.819.347.5.914m5.5 2c-.901.582-1.025.975-.309.985.655.008 1.469-.435 1.809-.985.767-1.242.421-1.242-1.5 0m-8 .393c0 .216.698.661 1.552.989.89.341 1.291.173.941-.393-.587-.951-2.493-1.406-2.493-.596m.559 14.139c-1.068.807-1.46 1.468-.873 1.468.588 0 1.629-.675 2.314-1.5 1.557-1.876 1.067-1.866-1.441.032"/><path fill="#1976D2" fill-opacity=".514" fill-rule="evenodd" d="M100.413 5.607c.198 1.351 1.466 2.073 4.572 2.603 11.432 1.952 25.527 12.156 30.458 22.051l2.507 5.032-3.124 3.558c-5.139 5.854-8.124 13.591-8.633 22.379l-.45 7.77H119l-.015 6.25c-.044 18.859-11.157 38.735-25.642 45.866-6.848 3.371-20.84 3.436-27.053.127-4.747-2.529-5.725-2.756-4.695-1.088.456.737.273.882-.507.399-.672-.415-.968-1.008-.658-1.317.309-.31-.778-1.379-2.418-2.376C54.79 114.902 46 103.624 46 101.449c0-2.449-2.125-2.68-4.462-.484-1.368 1.284-2.12 2.916-1.84 3.989.356 1.359-.926 2.664-5.083 5.181-4.387 2.656-5.564 3.903-5.587 5.919-.029 2.628-5.556 8.946-7.826 8.946-.803 0-1.202 1.993-1.202 6 0 5.613.15 6 2.326 6 2.544 0 6.08 3.294 7.077 6.593.38 1.26 3.518 3.661 7.878 6.031 6.924 3.763 7.368 3.869 9.981 2.407 2.542-1.423 2.735-1.989 2.736-8.034.002-5.864-.28-6.769-2.865-9.209-1.577-1.489-3.161-4.178-3.521-5.977-.534-2.673-.239-3.59 1.617-5.019 3.163-2.434 4.32-2.249 8.885 1.42 3.335 2.68 3.892 3.632 3.363 5.75-.348 1.396-1.273 3.248-2.055 4.117-.93 1.033-1.422 3.892-1.422 8.271 0 6.057.223 6.795 2.353 7.765 2.042.93 3.244.463 9.064-3.521 3.69-2.527 7.146-4.594 7.679-4.594s3.151 1.105 5.815 2.455 5.013 2.287 5.217 2.081c.205-.206.372 4.184.372 9.755v10.129l3.25.935c3.117.896 3.251 1.143 3.267 6.04l.017 5.105 10.44 5.812 10.44 5.812 2.943-2.177c2.931-2.166 8.098-2.402 12.247-.558 1.085.482 3.513-.76 7.5-3.837 21.188-16.35 21.505-16.632 20.903-18.531-.327-1.031.077-3.482.898-5.448l1.493-3.573h-6.355c-5.693 0-6.305.193-5.872 1.851.266 1.018-.258 2.593-1.165 3.5-1.532 1.532-1.342 1.663 2.673 1.846 2.376.108-5.804.462-18.179.786-25.107.658-27 .31-27-4.971 0-5.692-2.853-5.516 61.755-3.802l6.255.166 10.495-7.716L191 140.945v-4.568c0-2.876.7-5.552 1.889-7.223 1.739-2.442 1.772-2.949.411-6.361-1.296-3.247-1.81-3.641-4.144-3.174-2.057.411-3.234-.11-5.16-2.286-2.119-2.393-2.156-2.532-.246-.921 1.237 1.044 2.25 1.405 2.25.802s-.45-1.374-1-1.714-1-1.074-1-1.63c0-.557.707-.306 1.571.559 2.061 2.06 3.745 1.985 5.774-.258 2.008-2.218 2.157-5.778.288-6.871-.783-.458-1.1-1.541-.743-2.533.588-1.631.8-1.625 3.617.111 2.989 1.842 3.009 1.839 14.305-2.1 6.222-2.169 11.959-3.696 12.75-3.393 1.067.41 1.437-.277 1.434-2.666-.003-2.952-.547-3.5-6.552-6.605-5.629-2.911-6.9-3.227-9.044-2.25-3.432 1.563-4.087 1.443-4.69-.864-.386-1.476-.03-2 1.358-2 1.104 0 2.563-1.32 3.532-3.193 1.612-3.118 1.591-3.246-.869-5.362-2.784-2.395-2.245-4.827.951-4.286 2.596.44 18.231-13.646 16.77-15.107-.896-.896-9.451.736-18.106 3.454-1.642.516-2.31.183-2.814-1.406-.907-2.855.093-4.102 3.277-4.087 4.305.02 17.263-3.297 16.918-4.331-.173-.519-3.643-2.774-7.713-5.011-5.815-3.197-8.48-4.079-12.456-4.119-4.965-.051-5.099-.134-7.298-4.493-1.927-3.821-3.393-5.039-10.5-8.723-4.543-2.355-9.499-5.653-11.014-7.329-2.662-2.946-2.838-2.993-5.25-1.412-2.793 1.829-3.009 2.492-1.352 4.149.859.859.672 1.049-.75.762-5.261-1.062-12.792-1.39-11.394-.496 1.161.743.822.998-1.5 1.132-1.65.095-3.558.153-4.239.128-.682-.024-1.033.289-.782.697.252.407-.754 1.293-2.235 1.968-2.889 1.316-3.011 1.235-7.513-4.989-1.344-1.858-1.267-1.402.32 1.901 1.149 2.391 1.895 4.54 1.659 4.776-.236.237-3.541-3.294-7.345-7.846-6.036-7.226-7.991-8.822-15.39-12.567-9.911-5.016-19.029-6.786-18.562-3.603m-25.577 17.3c-3.115 1.003-7.223 2.787-9.128 3.965-9.945 6.146-18.366 20.736-21.29 36.888-1.665 9.197-1.67 10.292-.086 19.627 3.795 22.369 16.243 36.121 33.844 37.39 5.916.426 7.417.134 13.2-2.572 11.409-5.339 19.795-16.346 23.084-30.298 2.019-8.564 2.023-28.606.008-36.447-5.548-21.592-22.752-33.986-39.632-28.553m.464 4.955c-11.104 3.837-18.781 12.222-23.217 25.359-2.875 8.514-2.655 9.101 1.793 4.783 4.761-4.62 13.79-10.809 21.124-14.48 3.025-1.514 8.831-4.839 12.903-7.388 4.072-2.55 7.818-4.512 8.324-4.361 2.553.761-1.013-2.228-4.6-3.857-5.158-2.342-9.665-2.358-16.327-.056m78.085 4.755c-4.995 1.772-11.714 7.36-14.88 12.376-2.971 4.706-5.505 13.192-5.506 18.439V67.5l4.776-.331c4.514-.314 4.787-.19 4.99 2.263.291 3.51 4.427 11.36 8.026 15.233C155.052 89.251 163.018 93 168.499 93c6.179 0 10.572-2.019 15.825-7.271 5.351-5.352 8.045-12.6 7.976-21.46-.061-7.747 1.631-7.262 1.885.54l.185 5.691.369-5.307c.956-13.743-8.347-28.486-20.611-32.665-5.55-1.891-15.276-1.849-20.743.089m47.844-.446c-.676.676-1.229 2.069-1.229 3.095 0 1.447.619 1.796 2.75 1.55 2.178-.25 2.75-.833 2.75-2.802 0-2.766-2.339-3.775-4.271-1.843m-43.244 8.579c-2.884 1.513-6.414 4.325-7.845 6.25-2.371 3.19-2.398 3.326-.309 1.54 2.176-1.862 2.15-1.687-.52 3.458-5.24 10.101-3.064 24.324 4.852 31.703 4.306 4.014 11.625 6.6 16.708 5.903 12.891-1.767 22.43-16.595 19.263-29.943-.674-2.839-1.473-6.349-1.777-7.801-.821-3.93-5.785-9.404-10.672-11.77-6.212-3.008-13.15-2.775-19.7.66m.956 9.953c-9.188 7.732-7.631 24.169 2.847 30.058 2.191 1.231 5.205 2.239 6.697 2.239 3.236 0 8.909-2.542 10.719-4.803.733-.916-.136-.615-2.001.694-5.991 4.201-14.024 3.644-18.09-1.255-1.023-1.232-.86-1.701.925-2.656 1.191-.638 3.026-.935 4.077-.66 1.664.435 1.586.113-.602-2.487-7.076-8.409 1.295-19.928 10.234-14.083 1.471.962 2.374 1.261 2.006.663-.918-1.49 2.1-5.591 3.565-4.845.65.331-.288-.786-2.084-2.483-2.89-2.73-3.945-3.085-9.173-3.085-4.961 0-6.422.433-9.12 2.703m70.094-.769c-1.532 2.864-1.273 4.541 1.024 6.619 2.404 2.176 4.562 1.298 6.893-2.806 1.209-2.129 1.23-2.823.127-4.152-1.871-2.254-6.766-2.048-8.044.339m-8.958 18.489c-6.377 6.419-7.387 7.921-7.475 11.112-.098 3.53.153 3.819 5.785 6.661 5.871 2.963 5.896 2.966 9.25 1.16L231 85.545V73.88c0-9.715-.264-11.768-1.582-12.273-.87-.334-1.669-.607-1.775-.607s-3.511 3.34-7.566 7.423M56.455 65.455C54.561 67.348 54 68.959 54 72.5c0 7.81 6.444 12.16 10.911 7.365 3.923-4.211 3.56-10.394-.871-14.825-2.679-2.679-4.597-2.574-7.585.415m32.468.468c-3.944 3.945-4.04 9.302-.236 13.272 3.639 3.798 7.379 3.703 10.724-.272 3.622-4.304 3.497-9.169-.334-13-3.697-3.697-6.457-3.697-10.154 0m87.238 2.509c-.716 1.981-2.489 4.222-3.977 5.03-1.476.802-2.317 1.476-1.868 1.498 2.933.144 8.352-6.455 7.471-9.098-.184-.552-.916.605-1.626 2.57m5.782 2.583c-.856 2.675-1.227 4.66-.823 4.411.987-.61 3.126-7.208 2.71-8.36-.181-.504-1.031 1.273-1.887 3.949M133.587 72c2.588 15.223 15.82 27.375 29.807 27.375 9.921 0 21.247-6.279 25.991-14.41 1.383-2.371.298-1.604-4.078 2.882-7.319 7.504-13.151 10.29-21.638 10.339-13.414.078-23.139-7.819-28.391-23.054-1.257-3.648-2.018-5.057-1.691-3.132m-6.966 7c.339 1.925 1.22 4.625 1.957 6 1.853 3.453 1.699 2.432-.603-4-1.37-3.826-1.782-4.435-1.354-2m101.76 13.541c-3.423 5.224 2.169 10.174 7.107 6.29 2.676-2.106 3.287-5.656 1.312-7.631-2.135-2.135-6.608-1.423-8.419 1.341m-101.302 1.171c-.177 2.721-7.284 16.167-10.579 20.017-4.74 5.537-14.517 11.929-21.235 13.882-10.03 2.916-19.525 1.743-27.765-3.429-2.373-1.489-3.45-1.843-2.647-.869.745.902 3.895 2.889 7 4.414 4.752 2.334 6.923 2.773 13.699 2.773 7.279 0 8.775-.357 15.59-3.726 10.848-5.361 17.948-12.555 22.971-23.274 2.213-4.723 3.804-9.131 3.535-9.794-.381-.937-.508-.936-.569.006m7.921 1.71c0 .782-1.912 5.17-4.248 9.75-4.91 9.625-16.381 22.039-23.752 25.705l-4.5 2.239 7-.635c3.85-.35 8.575-1.107 10.5-1.682 4.453-1.332 14.009-7.038 16.551-9.884l1.949-2.181-2.5.685c-1.375.376-4.525 1.526-7 2.554-12.002 4.988-13.058 4.87-7.721-.859 4.546-4.88 10.697-14.419 13.273-20.584l1.544-3.694 3.202 2.403c5.817 4.365 6.271 4.159 1.259-.572-2.719-2.567-5.082-4.667-5.25-4.667s-.307.64-.307 1.422m74.329 11.473c-9.883 3.19-11.338 3.955-12.631 6.641-1.323 2.749-1.281 3.386.444 6.75 1.69 3.293 2.328 3.71 5.632 3.681 3.483-.031 4.117-.557 9.726-8.082 8.381-11.242 8.829-11.897 8.39-12.267-.215-.18-5.417 1.294-11.561 3.277m8.671 7.66c-4.675 6.303-8.315 12.02-8.09 12.703.226.683.609 2.592.851 4.242.376 2.551 1.345 3.413 6.471 5.756l6.03 2.755 2.505-2.505c1.681-1.681 3.613-2.506 5.869-2.506 2.324 0 3.364-.464 3.364-1.5 0-.833-.889-1.5-2-1.5-1.901 0-2-.667-2-13.465 0-12.289-.169-13.555-1.934-14.5-1.064-.569-2.077-1.014-2.25-.988-.174.025-4.141 5.204-8.816 11.508m-62.114-6.401c1.863.536 2.988 1.318 2.5 1.739-.487.42-2.07 1.652-3.517 2.736-5.066 3.796-13.346 11.662-10.936 10.39 6.222-3.286 18.067-13.524 18.067-15.615 0-.222-2.137-.363-4.75-.314l-4.75.09zM30 119.391c0 .75.563 1.781 1.25 2.291 2.091 1.551 6.916 3.395 6.307 2.411-.313-.507-.089-1.082.499-1.278.587-.196-.985-1.354-3.494-2.573-3.438-1.67-4.562-1.88-4.562-.851m82.5 9.234c-1.798 1.53-2.166 2.138-.918 1.518 1.833-.91 5.271-4.202 4.29-4.107-.204.02-1.722 1.185-3.372 2.589m58.7-1.425c-1.954 1.954-1.483 7.578.734 8.765 1.064.569 2.414 1.035 3 1.035 1.764 0 5.066-3.865 5.066-5.929 0-4.112-5.944-6.727-8.8-3.871M197 130c-2.222 2.222-2.651 6.949-.8 8.8.66.66 2.427 1.2 3.927 1.2 4.859 0 8.858-7.615 5.673-10.8-1.851-1.851-6.578-1.422-8.8.8m9.641 10.853-2.734 2.854 2.561 11.346c1.409 6.241 3.102 11.682 3.763 12.09 1.65 1.02 3.498-.696 7.692-7.143l3.577-5.5 6.072.293c8.318.402 10.983-.824 13.629-6.269 2.679-5.516 1.658-7.374-2.78-5.059-1.726.899-5.547 1.525-9.338 1.529-5.461.005-7.366-.516-12.784-3.494-3.502-1.925-6.493-3.5-6.646-3.5s-1.509 1.284-3.012 2.853m-104.606.082c-1.251 2.337.096 6.518 2.383 7.395.864.332 12.036.288 24.827-.097 13.208-.397 21.311-.966 18.755-1.316-2.475-.339-3.99-.684-3.367-.767 1.528-.202 2.363-4.962.972-5.536-.608-.251 2.132-.492 6.088-.535 6.349-.07 7.376.182 8.75 2.144.856 1.222 1.557 1.742 1.557 1.154 0-.587-.823-1.812-1.829-2.722-1.609-1.456-5.152-1.655-29.465-1.655-26.3 0-27.686.093-28.671 1.935m80.246 10.902c-8.804 6.798-11.226 9.19-11.25 11.108-.017 1.345-1.19 3.655-2.607 5.134-2.032 2.121-2.65 3.912-2.929 8.486-.239 3.907.112 6.464 1.075 7.839 1.855 2.647 1.823 6.025-.07 7.596-.983.815-1.5 3.045-1.5 6.462 0 4.68.274 5.342 2.664 6.431 2.933 1.336 1.095 2.36 21.836-12.166 4.95-3.467 8.955-6.848 8.9-7.515s-.167-2.697-.25-4.513c-.131-2.881-.74-3.587-4.793-5.556-3.262-1.585-4.958-1.942-5.7-1.2-1.427 1.427-5.974 1.34-7.457-.143-1.861-1.861-1.443-7.27.712-9.22 3.075-2.783 7.276-1.706 9.319 2.389.952 1.907 3.249 4.247 5.104 5.198l3.372 1.73 3.161-3.261 3.16-3.261-2.64-11.104c-1.86-7.82-3.121-11.243-4.265-11.574A72 72 0 0 1 195 143.7c-.897-.315-6.011 2.957-12.719 8.137m-114.266-1.139c-6.076 4.402-7.512 5.953-7.627 8.234-.125 2.498.686 3.281 7.29 7.038 6.826 3.884 7.669 4.129 10.376 3.008L81 167.757v-9.878c0-6.882-.355-9.879-1.171-9.879-.644 0-1.882-.613-2.75-1.362-1.369-1.182-2.575-.641-9.064 4.06m91.435-4.775c-.522.508-2.3 1.115-3.95 1.35-2.783.396-2.737.438.643.577 2.421.1 3.836-.353 4.219-1.35.663-1.729.427-1.878-.912-.577m-133.795 5.906C24.346 153.275 24 155.76 24 163.722c0 12.479.791 13.1 8.59 6.748 3.035-2.472 6.619-5.216 7.964-6.098 1.617-1.059 2.446-2.538 2.446-4.363 0-2.398-.908-3.238-6.896-6.385-7.966-4.186-8.242-4.233-10.449-1.795m23 4c-2.956 3.266-1.521 8.171 2.39 8.171 4.228 0 6.603-7.048 3.021-8.965-2.678-1.433-3.506-1.311-5.411.794m112.356 5.658c-1.464 1.764-.701 4.311 1.55 5.175 2.17.833 5.712-2.787 4.871-4.979-.799-2.082-4.756-2.203-6.421-.196M37.144 171.956c-7.053 5.553-7.364 5.975-7.533 10.227l-.176 4.435 7.852 4.685c7.7 4.594 7.9 4.651 10.252 2.941 2.29-1.665 2.4-2.268 2.43-13.379.03-11.279-.044-11.684-2.434-13.25-1.355-.888-2.593-1.578-2.75-1.533s-3.595 2.688-7.641 5.874M55.2 167.2c-.797.797-1.2 5.148-1.2 12.965 0 10.776.17 11.855 2.018 12.845 1.712.916 2.941.352 8.106-3.715 3.349-2.637 6.941-5.412 7.983-6.167q1.893-1.372 1.882-5c-.01-3.463-.349-3.821-7.467-7.878-7.963-4.538-9.437-4.935-11.322-3.05m98.484 7.636c-4.015 3.736-17.05 14.128-22.787 18.167-1.901 1.338.435 5.583 3.922 7.128 7.712 3.416 8.814 3.979 13.602 6.954 4.266 2.651 5.037 2.848 5.799 1.486.484-.864 2.142-2.224 3.685-3.022 2.372-1.227 2.901-2.263 3.429-6.722.484-4.089.293-5.456-.855-6.099-1.922-1.075-1.908-6.127.021-7.728 1.042-.864 1.5-3.162 1.5-7.515 0-8.456-1.547-8.948-8.316-2.649m52.816-2.628c-4.659 2.672-5.973 8.149-2.671 11.137 2.453 2.221 5.331 2.086 7.97-.373 3.653-3.402 3.944-6.936.797-9.643-3.076-2.646-3.349-2.696-6.096-1.121m-127.3.992c-1.31 1.31-1.542 3.744-.593 6.218.781 2.034 4.792 2.04 6.822.011 3.02-3.021 1.282-7.429-2.929-7.429-1.155 0-2.64.54-3.3 1.2m24.55-.12c-2.01 1.171-2.349 5.921-.55 7.72.821.821 5.695 1.2 15.427 1.2 14.179 0 14.235-.009 16.3-2.635 1.14-1.449 2.073-3.229 2.073-3.955 0-.749 1.62-1.584 3.75-1.931 2.063-.337 4.425-.755 5.25-.93.825-.174-7.95-.356-19.5-.403-12.617-.051-21.699.322-22.75.934m-84 6c-3.094 1.802-1.642 7.92 1.879 7.92 1.644 0 4.371-2.807 4.371-4.5 0-1.421-2.652-4.522-3.821-4.47-.374.017-1.467.489-2.429 1.05m65.75 5.522c-1.341 1.031-3.175 1.356-5.569.985-3.203-.496-4.375.066-11.442 5.485-7.569 5.803-7.877 6.2-7.95 10.233l-.076 4.195 8.804 5.282c8.283 4.968 8.934 5.19 10.991 3.75 2.634-1.845 5.102-1.948 7.706-.322 1.688 1.054 3.234.32 12.034-5.709 9.837-6.739 10.09-7.009 9.8-10.433-.283-3.341-.813-3.802-10.679-9.292-5.709-3.177-10.659-5.762-11-5.744s-1.519.724-2.619 1.57m31.157 8.453c-3.473 2.732-3.697 8.103-.434 10.388 3.095 2.169 4.499 1.96 7.325-1.089 2.633-2.841 3.245-7.475 1.202-9.109-2.763-2.211-5.444-2.274-8.093-.19M79 194c-2.182 2.182-2.591 6.026-.965 9.066 1.61 3.007 7.292 2.605 9.892-.701 1.14-1.449 2.073-3.188 2.073-3.865s-.933-2.416-2.073-3.865c-2.49-3.167-6.136-3.426-8.927-.635m-30.592 5.5c-1.517 2.316-1.517 2.684 0 5 2.101 3.207 5.094 3.19 7.211-.041 1.333-2.035 1.442-3.031.544-5-1.514-3.324-5.564-3.302-7.755.041m33.842 2.206c-1.237.238-2.25.88-2.25 1.427 0 1.429 6.266.61 6.756-.883.412-1.255-.341-1.346-4.506-.544m42.75 4.586-3.5 3.208.316 10.5.317 10.5 3.55 2.281 3.55 2.281 10.478-7.598c5.763-4.18 11.03-7.811 11.705-8.07.723-.278 1.038-1.584.768-3.182-.39-2.315-2.02-3.481-11.123-7.962-5.867-2.887-11.092-5.231-11.614-5.208-.521.023-2.522 1.485-4.447 3.25m-23.5 5.893c-12.638 9.825-12.631 10.7.144 18.324 6.056 3.614 9.897 5.368 10.142 4.633.217-.651 1.704-1.861 3.304-2.689l2.91-1.504-.006-10.725-.007-10.724-3.243-1.976c-1.784-1.086-3.469-2.056-3.744-2.155s-4.55 2.968-9.5 6.816M159 210c-2.359 2.359-2.609 6.25-.513 7.989 2.217 1.84 6.269.384 7.943-2.854 1.294-2.502 1.29-3.09-.038-4.986-1.885-2.691-4.792-2.749-7.392-.149m-78.961 9.928c-1.237 2.311-.446 4.784 1.941 6.061 3.174 1.699 6.64-2.759 4.85-6.239-1.209-2.351-5.498-2.239-6.791.178m35.034 18.707c-2.47 3.14-2.638 6.113-.516 9.142 2.583 3.689 7.597 2.76 9.98-1.849 1.963-3.795 1.844-5.547-.537-7.928-2.791-2.791-6.437-2.532-8.927.635"/><path fill="#1976D2" fill-opacity=".682" fill-rule="evenodd" d="M102.12 5.905c-.962.609.18 1.208 3.772 1.978 10.608 2.275 22.271 10.118 28.074 18.879 4.726 7.135 4.813 8.633.765 13.114-8.569 9.485-11.093 29.271-5.541 43.433 1.546 3.943-.389 11.859-5.295 21.66-6.331 12.65-18.226 22.181-31.849 25.52-10.556 2.587-19.83-.232-30.795-9.359C55 115.927 45 103.028 45 100.169c0-1.135-.63-.926-2.5.831-1.375 1.292-2.502 3.283-2.505 4.424-.004 1.421-1.737 3.18-5.495 5.576-3.019 1.925-5.492 4.002-5.495 4.614s3.429 2.768 7.625 4.788c6.928 3.334 7.787 3.531 9.329 2.135.934-.845 2.338-1.532 3.12-1.526 2.319.017 9.908 7.86 9.254 9.563-.318.829-.186 1.418.294 1.308 1.672-.382 4.373 1.342 4.373 2.792 0 1.056-.623 1.266-2.25.759-1.237-.387-2.496-1.082-2.796-1.547s-1.313.052-2.25 1.147c-2.435 2.843-2.322 11.982.185 15.079l1.89 2.333 6.36-4.383c3.499-2.41 7.366-5.282 8.595-6.381 2.176-1.947 2.336-1.953 6.186-.217 2.23 1.006 5.286 1.586 7.016 1.332 3.639-.534 4.076 1.192 1.064 4.204-1.705 1.705-2 3.333-2 11.032 0 8.423.15 9.088 2.225 9.855 1.398.518 3.421.323 5.446-.523 4.218-1.762 5.479.069 1.586 2.303-2.466 1.416-2.846 2.204-2.682 5.577.177 3.643.606 4.178 5.914 7.376 3.149 1.897 7.508 4.358 9.687 5.47l3.963 2.021 4.246-2.055c5.052-2.446 6.219-2.511 9.969-.555 2.609 1.361 3.087 1.321 5.588-.46 6.227-4.433 5.913-4.561-10.441-4.243-14.778.287-15.409.217-17.417-1.938-2.568-2.757-2.649-5.039-.255-7.205 1.588-1.438 4.81-1.655 24.535-1.655 19.218 0 23.085-.248 25.171-1.615 1.356-.888 2.465-2.351 2.465-3.25 0-1.479-2.376-1.602-24.9-1.285-24.199.34-24.959.291-27-1.75-2.597-2.597-2.681-5.265-.235-7.477 1.675-1.517 4.583-1.648 28.75-1.294 14.787.216 29.515.431 32.73.476 5.775.082 5.969-.009 16.131-7.611 9.626-7.2 10.257-7.886 9.824-10.694-.456-2.962.583-6.453 2.868-9.632.903-1.257.876-2.348-.119-4.75-1.066-2.573-1.851-3.118-4.496-3.118-3.741 0-7.553-3.464-7.553-6.864 0-3.053 2.608-7.856 4.945-9.106 2.771-1.484 6.27-1.268 8.858.544 2.096 1.469 2.969 1.334 12.974-2 5.9-1.966 11.738-3.574 12.975-3.574 1.708 0 2.248-.578 2.248-2.408 0-3.275-12.032-10.18-14.984-8.6-4.013 2.147-9.016.614-9.016-2.764 0-.809.922-1.296 2.25-1.189 1.238.1 2.722.133 3.299.072 1.248-.132.622-7.336-.712-8.191-1.978-1.268.421-3.92 3.547-3.92 2.592 0 4.417-1.257 10.011-6.895 3.763-3.791 6.676-7.32 6.473-7.84-.211-.544-3.553-.11-7.868 1.022-10.901 2.861-12.433 2.797-12.816-.537-.291-2.522.503-3.268 3.055-2.872 1.277.198 16.225-3.156 16.992-3.813.402-.345-3.002-2.666-7.563-5.158-6.979-3.814-8.724-4.388-11.013-3.625-3.544 1.181-7.304-1.198-9.249-5.852-1.14-2.729-2.881-4.14-8.666-7.022-3.982-1.983-9.071-5.375-11.308-7.537-4.043-3.906-4.079-3.918-5.888-1.919-1.413 1.561-1.561 2.323-.662 3.406.972 1.171-.252 1.467-7.612 1.843-7.182.366-9.747.964-14.166 3.304l-5.396 2.857-2.437-2.931c-12.462-14.987-15.793-17.654-26.757-21.426-6.412-2.206-8.328-2.409-10.394-1.1M72.644 24.08C58.656 29.755 49.22 42.315 45.439 60.291c-6.591 31.333 9.93 60.097 34.561 60.17 8.357.025 14.531-2.886 22.067-10.406 6.68-6.666 10.196-13.719 12.495-25.065 2.187-10.792 1.526-27.465-1.469-37.037C106.843 27.974 89 17.443 72.644 24.08m-.284 4.333c-2.826 1.316-7.003 4.077-9.282 6.136C51.344 45.15 44.782 69.807 49.669 84.937l1.668 5.166 1.29-3.067c.709-1.687 1.995-3.337 2.857-3.668 1.295-.497 1.346-.882.292-2.218-1.093-1.384-.887-1.367 1.439.117 3.641 2.325 4.689 2.199 7.98-.954C67.323 78.275 68 76.691 68 73.754c0-2.13.379-3.638.842-3.352s2.375-1.082 4.25-3.04 5.812-5.112 8.75-7.008 5.863-3.899 6.5-4.452C92.108 52.634 104.57 45 106.138 45c2.531 0 2.361-.904-1.17-6.234-7.871-11.883-20.625-15.933-32.608-10.353m83.884 3.091c-9.262 2.569-15.023 7.214-19.221 15.496-7.704 15.199-5.663 30.794 5.625 42.986 6.962 7.52 13.829 10.447 22.871 9.747 20.162-1.56 34.384-22.951 29.064-43.715-4.802-18.744-21.242-29.255-38.339-24.514m44.956.696c-1.967 1.967-1.368 3.8 1.241 3.8 3 0 4.138-1.598 2.523-3.544-1.469-1.769-2.201-1.819-3.764-.256m-41.7 10.462c-7.916 4.173-12.488 12.181-12.468 21.838.028 13.736 9.684 24.5 21.978 24.5 6.215 0 9.496-1.604 14.412-7.046 7.731-8.557 9.12-18.588 3.972-28.688-4.215-8.27-10.368-12.281-18.757-12.226-3.591.023-7.382.696-9.137 1.622m1.52 6.09c-4.452 2.236-7.736 7.172-8.598 12.921-1.303 8.69 3.375 17.128 11.537 20.809 3.461 1.56 4.638 1.656 7.997.649 5.065-1.517 9.408-5.898 11.639-11.741 1.522-3.985 1.606-5.402.602-10.189-2.423-11.548-13.32-17.402-23.177-12.449m69.03.688c-.657.791-1.049 2.704-.872 4.25.647 5.645 7.822 3.559 7.822-2.274 0-3.331-4.714-4.671-6.95-1.976m-64.244 7.704c-3.088 1.13-5.355 6.494-4.263 10.09 2.488 8.202 10.829 8.906 14.055 1.186 1.243-2.976 1.239-3.876-.036-6.926-.867-2.074-2.533-3.913-4.079-4.5-1.437-.547-2.696-.958-2.798-.915s-1.397.522-2.879 1.065m54.425 11.123C213.862 74.679 213 75.99 213 79.259c0 3.536.287 3.857 6.026 6.754 5.881 2.969 6.084 2.999 8.489 1.264 2.408-1.736 2.459-2.05 2.225-13.695-.141-6.988-.661-12.058-1.259-12.257-.56-.185-4.273 2.938-8.25 6.942M91.256 63.029c-3.528 1.418-6.442 6.87-5.835 10.917 1.055 7.032 8.849 10.834 13.528 6.6 3.45-3.122 4.439-7.927 2.481-12.052-1.347-2.84-6.014-6.773-7.63-6.431-.165.035-1.31.47-2.544.966m115.308 14.264c.376.986.935 1.541 1.243 1.233s.001-1.114-.683-1.793c-.988-.98-1.102-.865-.56.56M142 87.378c0 .207.787.995 1.75 1.75 1.586 1.243 1.621 1.208.378-.378-1.307-1.666-2.128-2.195-2.128-1.372m87.571 4.193C226.52 94.623 228.197 100 232.2 100c2.149 0 5.8-3.417 5.8-5.429 0-2.014-2.797-4.571-5-4.571-1.021 0-2.564.707-3.429 1.571M135 93.843c0 .533-.835.751-1.855.485-2.01-.526-4.134 2.461-7.587 10.672-4.784 11.374-7.637 16.698-10.241 19.11-4.171 3.866-10.542 7.89-12.49 7.89-.94 0-2 .471-2.355 1.046-.437.707 1.085.842 4.691.418 16.983-1.999 20.809-3.494 32.587-12.734 3.438-2.696 6.25-4.616 6.25-4.266 0 2.094-3.553 6.839-6.743 9.007-5.251 3.569-2.016 3.148 4.627-.601 7.685-4.337 15.514-10.392 18.503-14.31l2.514-3.296-5.607-.659c-4.843-.569-5.909-.376-7.82 1.42-2.1 1.972-2.238 1.984-2.696.236-.292-1.117-2.214-2.39-4.88-3.232-2.419-.764-4.96-1.813-5.648-2.332-.764-.576-1.25-.58-1.25-.011 0 .513-.671 1.805-1.492 2.873-.821 1.067-.486-.343.745-3.135 1.914-4.344 2.439-4.875 3.632-3.682.768.768 2.454 2.089 3.747 2.936 1.293.848 2.06 2.011 1.705 2.586-.372.602-.165.748.488.344.623-.385 2.043-.214 3.154.381 1.112.595 2.021.932 2.021.75s-3.15-3.152-7-6.599-7-5.83-7-5.297m73.859 13.746c-9.192 2.973-10.783 3.813-11.78 6.221-.907 2.188-.852 3.5.255 6.134 1.22 2.9 1.903 3.364 5.085 3.453 3.502.098 4.014-.34 10.753-9.19 3.892-5.111 6.905-9.464 6.695-9.673-.21-.21-5.163 1.165-11.008 3.055m9.341 7.361-8.301 10.982 1.24 4.138c1.066 3.557 1.981 4.501 6.527 6.73l5.286 2.593 2.381-2.236c1.309-1.23 4.132-2.528 6.274-2.885 3.463-.576 3.617-.715 1.393-1.253-2.487-.602-2.503-.678-3-14.55-.406-11.336-.781-13.998-2-14.223-.908-.168-4.776 4.056-9.8 10.704m-32.161-5.022c-1.444 2.698-.259 5.072 2.533 5.072 2.572 0 4.928-3.256 4.036-5.578-.806-2.102-5.361-1.751-6.569.506m4.198 1.832c-1.168 2.491-1.14 2.572.366 1.066.896-.896 1.464-2.109 1.263-2.695s-.935.147-1.629 1.629M26.089 122.405c-1.345 1.432-2.089 3.547-2.089 5.941 0 2.381-.539 3.924-1.5 4.292-1.907.732-1.967 3.362-.077 3.362 2.221 0 7.412 4.831 7.762 7.223.221 1.512 2.457 3.306 7.501 6.015 6.294 3.381 7.441 3.699 9.25 2.57 1.735-1.084 2.064-2.306 2.064-7.667 0-5.66-.337-6.761-3-9.794-1.65-1.879-3-4.23-3-5.224 0-1.23-1.23-2.175-3.856-2.962-2.121-.635-5.456-2.241-7.411-3.567l-3.555-2.413zm135.027 2.345c-.064.688-1.016 2.15-2.116 3.25-1.398 1.398-1.585 2-.622 2 2.008 0 3.86-2.623 3.321-4.702-.257-.989-.519-1.235-.583-.548m10.107 1.807c-2.497 1.748-3.109 7.513-.973 9.165 4.143 3.206 9.75.481 9.75-4.738 0-2.756-2.967-5.984-5.5-5.984-.58 0-2.055.701-3.277 1.557m26.232 3.898c-3.74 3.739-2.622 9.56 1.83 9.53 2.706-.019 3.835-.761 6.023-3.958 2.101-3.07 2.127-4.449.121-6.456-2.259-2.259-5.153-1.938-7.974.884m-94.8 9.374c-2.171 2.399-2.1 5.458.174 7.516 1.606 1.454 5.109 1.655 28.845 1.655 24.903 0 27.145-.143 28.671-1.829 2.305-2.546 2.064-5.771-.568-7.614-1.876-1.315-6.368-1.557-28.845-1.557-24.521 0-26.753.144-28.277 1.829m104.27 1.253-2.575 2.699 2.318 10.36c1.276 5.697 2.533 10.922 2.794 11.609 1.074 2.825 3.615.829 8.355-6.559 4.272-6.659 4.911-8.283 4.346-11.036-.546-2.657-1.725-3.807-6.663-6.5l-6-3.273zm-15.376 3.839c-.334.54-4.869 4.186-10.078 8.101-7.549 5.674-9.471 7.627-9.471 9.625 0 1.452-1.262 3.769-3 5.507-2.649 2.648-3 3.684-3 8.842 0 3.714.631 6.942 1.733 8.862 1.68 2.927 1.665 3.112-.5 6.04-1.438 1.946-2.233 4.45-2.233 7.036 0 3.37.441 4.241 2.75 5.428 2.993 1.538 1.015 2.688 25.79-14.992l5.041-3.597-1.005-4.331c-.847-3.648-1.604-4.602-4.8-6.043-3.07-1.385-4.282-1.49-6.343-.551-7.306 3.33-11.346-7.773-4.177-11.48 3.976-2.056 7.557-.552 8.371 3.516.424 2.123 1.581 3.357 4.295 4.581 3.669 1.654 3.749 1.643 6.724-.967l3.011-2.642-2.464-11.178c-1.355-6.148-2.515-11.231-2.578-11.295-.791-.809-7.611-1.199-8.066-.462m-123.383 6.235C62.111 155.368 61 156.584 61 159c0 2.523.879 3.345 7.461 6.979 6.96 3.841 7.615 4.018 9.75 2.622 2.149-1.405 2.269-2.046 1.97-10.479-.286-8.044-.556-9.138-2.584-10.467-2.129-1.395-2.694-1.185-9.431 3.501m-41.769.702c-1.888 1.548-2.092 2.71-2 11.413.078 7.369.443 9.822 1.522 10.243.811.316 4.666-1.967 9-5.332 10.005-7.766 10.064-9.219.581-14.298-6.73-3.604-7.081-3.682-9.103-2.026m21.606 5.633c-1.175 3.093-.416 5.243 2.137 6.054 2.238.71 4.498-.831 5.404-3.683 1.483-4.672-5.796-6.96-7.541-2.371m113.574 4.075c-2.301 2.301-1.468 3.934 2.006 3.934 2.44 0 2.917-.406 2.917-2.486 0-3.028-2.584-3.788-4.923-1.448m-105.658 6.031c-.922 1.111-1.34 5.046-1.372 12.916-.063 15.228.572 15.637 11.142 7.177 7.011-5.611 7.811-6.602 7.811-9.677 0-3.218-.455-3.684-7.5-7.686-4.125-2.344-7.782-4.276-8.128-4.294-.345-.018-1.224.686-1.953 1.564m-18.438 4.74c-6.468 5.043-6.859 5.58-7.102 9.768l-.258 4.432 7.612 4.559 7.612 4.559 2.077-2.077c1.867-1.867 2.066-3.187 1.961-12.994-.099-9.328-.382-11.11-1.941-12.25-1.003-.734-2.115-1.334-2.47-1.334s-3.726 2.401-7.491 5.337m114.453 4.413c-3.568 3.162-9.738 8.155-13.711 11.095-9.005 6.663-9.44 8.805-2.473 12.174 6.242 3.018 7.937 3.898 12.972 6.739l4.222 2.382 4.028-3.238c3.604-2.896 4.028-3.7 4.028-7.641 0-2.581-.621-5.025-1.5-5.904-2.001-2-1.896-4.961.25-7.107 2.385-2.385 2.561-14.25.211-14.25-.846 0-4.458 2.588-8.027 5.75m-72.482-2.317c-1.927 2.941-.514 6.567 2.56 6.567 2.908 0 5.419-4.327 4.024-6.933-1.491-2.785-4.634-2.61-6.584.366m124.621.202c-2.607 3.313-2.628 5.81-.073 8.365 2.639 2.639 4.568 2.523 7.545-.455 2.644-2.643 3.273-7.327 1.255-9.345-2.12-2.12-6.498-1.4-8.727 1.435m-184.835 5.527c-1.666 1.666-1.559 3.375.331 5.265 2.345 2.345 5.65.299 5.241-3.244-.345-2.986-3.472-4.121-5.572-2.021m67.262 4.481c-1.258.937-3.484 1.347-6 1.105-3.613-.346-4.749.194-11.75 5.596-7.462 5.758-7.748 6.131-7.701 10.068.049 4.034.16 4.156 8.361 9.176 7.316 4.479 8.531 4.929 10.142 3.75 2.179-1.593 5.846-1.73 8.485-.318 1.571.841 3.561-.126 11.325-5.502 8.48-5.871 9.461-6.874 9.832-10.058.408-3.489.311-3.592-7.14-7.641-4.155-2.257-8.904-4.905-10.554-5.885-2.682-1.592-3.212-1.623-5-.291m-6.136 7.527c-2.129 1.031-4.364 4.74-4.364 7.242 0 2.675 4.097 6.588 6.898 6.588 6.457 0 9.544-8.934 4.467-12.927-2.918-2.296-3.871-2.419-7.001-.903M116 194c-3.991 3.991-1.668 10.43 3.549 9.836 2.21-.252 3.445-1.259 4.921-4.015 1.927-3.598 1.929-3.723.095-5.75-2.373-2.621-5.985-2.651-8.565-.071m-66.379 4.521c-2.212 2.213-2.049 6.18.307 7.44 2.647 1.417 4.965.314 5.728-2.726 1.183-4.714-2.869-7.879-6.035-4.714m75.629 8.035-3.25 3.272.033 10.336.032 10.336 3.718 1.757 3.717 1.756 6-4.166c3.3-2.291 8.357-5.782 11.238-7.756 7.913-5.425 7.409-6.553-5.988-13.402-6.187-3.163-11.475-5.673-11.75-5.578s-1.963 1.645-3.75 3.445m-23.817 6.236c-12.129 8.974-12.18 10.114-.749 16.668 4.593 2.633 8.594 5.181 8.891 5.661.296.48 2.089-.363 3.982-1.874L117 230.5v-10.589c0-11.512.45-10.493-6-13.587-.275-.132-4.58 2.779-9.567 6.468m58.01-2.326c-2.833 2.833-3.074 4.76-.872 6.963 2.141 2.14 3.102 1.989 6.041-.95 3.02-3.02 2.833-6.414-.419-7.609-1.809-.665-2.833-.321-4.75 1.596m-78.403 8.986c-2.648 3.19 1.259 8.205 4.376 5.618 1.881-1.562 2.054-4.2.384-5.87-1.603-1.603-3.295-1.514-4.76.252m36.335 17.533c-5.104 2.061-4.761 11.378.468 12.69 5.534 1.389 9.681-8.794 4.934-12.118-2.501-1.752-2.484-1.75-5.402-.572"/></svg>